HIERARCHY
ROOT Hips
{
	OFFSET -339.306915 540.749023 89.171944
	CHANNELS 6 Xposition Yposition Zposition Zrotation Yrotation Xrotation
	JOINT Spine
	{
		OFFSET 0.000000 2.080078 8.814247
		CHANNELS 6 Xposition Yposition Zposition Zrotation Yrotation Xrotation
		JOINT Spine1
		{
			OFFSET 0.000000 0.000000 8.844139
			CHANNELS 6 Xposition Yposition Zposition Zrotation Yrotation Xrotation
			JOINT Spine2
			{
				OFFSET 0.000000 0.000000 11.682266
				CHANNELS 6 Xposition Yposition Zposition Zrotation Yrotation Xrotation
				JOINT Spine3
				{
					OFFSET 0.000000 0.000000 11.746696
					CHANNELS 6 Xposition Yposition Zposition Zrotation Yrotation Xrotation
					JOINT Neck
					{
						OFFSET 0.000000 0.000000 17.658264
						CHANNELS 6 Xposition Yposition Zposition Zrotation Yrotation Xrotation
						JOINT Neck1
						{
							OFFSET 0.000000 0.000000 5.101517
							CHANNELS 6 Xposition Yposition Zposition Zrotation Yrotation Xrotation
							JOINT Head
							{
								OFFSET 0.000000 0.000000 5.101517
								CHANNELS 6 Xposition Yposition Zposition Zrotation Yrotation Xrotation
								JOINT HeadEnd
								{
									OFFSET 0.000000 0.000000 11.655090
									CHANNELS 6 Xposition Yposition Zposition Zrotation Yrotation Xrotation
									End Site
									{
										OFFSET 0.000000 0.000000 0.100006
									}
								}
							}
						}
					}
					JOINT RightShoulder
					{
						OFFSET -2.625397 0.000000 11.175217
						CHANNELS 6 Xposition Yposition Zposition Zrotation Yrotation Xrotation
						JOINT RightArm
						{
							OFFSET 0.000000 0.000000 10.434708
							CHANNELS 6 Xposition Yposition Zposition Zrotation Yrotation Xrotation
							JOINT RightForeArm
							{
								OFFSET 0.000000 0.000000 29.628418
								CHANNELS 6 Xposition Yposition Zposition Zrotation Yrotation Xrotation
								JOINT RightHand
								{
									OFFSET 0.000000 0.000000 22.857605
									CHANNELS 6 Xposition Yposition Zposition Zrotation Yrotation Xrotation
									JOINT RightHandThumb1
									{
										OFFSET -2.867310 -2.944275 3.959564
										CHANNELS 6 Xposition Yposition Zposition Zrotation Yrotation Xrotation
										JOINT RightHandThumb2
										{
											OFFSET 0.000000 0.000000 3.350403
											CHANNELS 6 Xposition Yposition Zposition Zrotation Yrotation Xrotation
											JOINT RightHandThumb3
											{
												OFFSET 0.000000 0.000000 3.756516
												CHANNELS 6 Xposition Yposition Zposition Zrotation Yrotation Xrotation
												JOINT RightHandThumb4
												{
													OFFSET 0.000000 0.000000 3.147339
													CHANNELS 6 Xposition Yposition Zposition Zrotation Yrotation Xrotation
													End Site
													{
														OFFSET 0.000000 0.000000 0.100006
													}
												}
											}
										}
									}
									JOINT RightHandIndex1
									{
										OFFSET -0.086761 -2.345276 10.030899
										CHANNELS 6 Xposition Yposition Zposition Zrotation Yrotation Xrotation
										JOINT RightHandIndex2
										{
											OFFSET 0.000000 0.000000 4.061096
											CHANNELS 6 Xposition Yposition Zposition Zrotation Yrotation Xrotation
											JOINT RightHandIndex3
											{
												OFFSET 0.000000 0.000000 3.248871
												CHANNELS 6 Xposition Yposition Zposition Zrotation Yrotation Xrotation
												JOINT RightHandIndex4
												{
													OFFSET 0.000000 0.000000 2.639709
													CHANNELS 6 Xposition Yposition Zposition Zrotation Yrotation Xrotation
													End Site
													{
														OFFSET 0.000000 0.000000 0.100006
													}
												}
											}
										}
									}
									JOINT RightHandMiddle1
									{
										OFFSET 0.104095 -0.006775 9.502945
										CHANNELS 6 Xposition Yposition Zposition Zrotation Yrotation Xrotation
										JOINT RightHandMiddle2
										{
											OFFSET 0.000000 0.000000 4.568726
											CHANNELS 6 Xposition Yposition Zposition Zrotation Yrotation Xrotation
											JOINT RightHandMiddle3
											{
												OFFSET 0.000000 0.000000 3.654984
												CHANNELS 6 Xposition Yposition Zposition Zrotation Yrotation Xrotation
												JOINT RightHandMiddle4
												{
													OFFSET 0.000000 0.000000 2.741241
													CHANNELS 6 Xposition Yposition Zposition Zrotation Yrotation Xrotation
													End Site
													{
														OFFSET 0.000000 0.000000 0.100006
													}
												}
											}
										}
									}
									JOINT RightHandRing1
									{
										OFFSET 0.086761 2.267456 8.921707
										CHANNELS 6 Xposition Yposition Zposition Zrotation Yrotation Xrotation
										JOINT RightHandRing2
										{
											OFFSET 0.000000 0.000000 4.061096
											CHANNELS 6 Xposition Yposition Zposition Zrotation Yrotation Xrotation
											JOINT RightHandRing3
											{
												OFFSET 0.000000 0.000000 3.654984
												CHANNELS 6 Xposition Yposition Zposition Zrotation Yrotation Xrotation
												JOINT RightHandRing4
												{
													OFFSET 0.000000 0.000000 2.741241
													CHANNELS 6 Xposition Yposition Zposition Zrotation Yrotation Xrotation
													End Site
													{
														OFFSET 0.000000 0.000000 0.100006
													}
												}
											}
										}
									}
									JOINT RightHandPinky1
									{
										OFFSET -0.173492 4.467224 7.976990
										CHANNELS 6 Xposition Yposition Zposition Zrotation Yrotation Xrotation
										JOINT RightHandPinky2
										{
											OFFSET 0.000000 0.000000 3.350403
											CHANNELS 6 Xposition Yposition Zposition Zrotation Yrotation Xrotation
											JOINT RightHandPinky3
											{
												OFFSET 0.000000 0.000000 2.842758
												CHANNELS 6 Xposition Yposition Zposition Zrotation Yrotation Xrotation
												JOINT RightHandPinky4
												{
													OFFSET 0.000000 0.000000 2.639709
													CHANNELS 6 Xposition Yposition Zposition Zrotation Yrotation Xrotation
													End Site
													{
														OFFSET 0.000000 0.000000 0.100006
													}
												}
											}
										}
									}
									JOINT RightForeArmEnd
									{
										OFFSET 0.000000 0.000000 0.000000
										CHANNELS 6 Xposition Yposition Zposition Zrotation Yrotation Xrotation
										End Site
										{
											OFFSET 0.000000 0.000000 0.100006
										}
									}
								}
								JOINT RightArmEnd
								{
									OFFSET 0.000000 0.000000 0.000000
									CHANNELS 6 Xposition Yposition Zposition Zrotation Yrotation Xrotation
									End Site
									{
										OFFSET 0.000000 0.000000 0.100006
									}
								}
							}
						}
					}
					JOINT LeftShoulder
					{
						OFFSET 2.625397 0.000000 11.175217
						CHANNELS 6 Xposition Yposition Zposition Zrotation Yrotation Xrotation
						JOINT LeftArm
						{
							OFFSET 0.000000 0.000000 10.813629
							CHANNELS 6 Xposition Yposition Zposition Zrotation Yrotation Xrotation
							JOINT LeftForeArm
							{
								OFFSET 0.000000 0.000000 28.724777
								CHANNELS 6 Xposition Yposition Zposition Zrotation Yrotation Xrotation
								JOINT LeftHand
								{
									OFFSET 0.644379 0.328857 25.716171
									CHANNELS 6 Xposition Yposition Zposition Zrotation Yrotation Xrotation
									JOINT LeftHandThumb1
									{
										OFFSET 2.867310 -2.944275 3.959564
										CHANNELS 6 Xposition Yposition Zposition Zrotation Yrotation Xrotation
										JOINT LeftHandThumb2
										{
											OFFSET 0.000000 0.000000 3.350403
											CHANNELS 6 Xposition Yposition Zposition Zrotation Yrotation Xrotation
											JOINT LeftHandThumb3
											{
												OFFSET 0.000000 0.000000 3.756516
												CHANNELS 6 Xposition Yposition Zposition Zrotation Yrotation Xrotation
												JOINT LeftHandThumb4
												{
													OFFSET 0.000000 0.000000 3.100006
													CHANNELS 6 Xposition Yposition Zposition Zrotation Yrotation Xrotation
													End Site
													{
														OFFSET 0.000000 0.000000 0.100006
													}
												}
											}
										}
									}
									JOINT LeftHandIndex1
									{
										OFFSET 0.086761 -2.345276 10.030899
										CHANNELS 6 Xposition Yposition Zposition Zrotation Yrotation Xrotation
										JOINT LeftHandIndex2
										{
											OFFSET 0.000000 0.000000 4.061096
											CHANNELS 6 Xposition Yposition Zposition Zrotation Yrotation Xrotation
											JOINT LeftHandIndex3
											{
												OFFSET 0.000000 0.000000 3.248871
												CHANNELS 6 Xposition Yposition Zposition Zrotation Yrotation Xrotation
												JOINT LeftHandIndex4
												{
													OFFSET 0.000000 0.000000 2.639709
													CHANNELS 6 Xposition Yposition Zposition Zrotation Yrotation Xrotation
													End Site
													{
														OFFSET 0.000000 0.000000 0.100006
													}
												}
											}
										}
									}
									JOINT LeftHandMiddle1
									{
										OFFSET -0.104095 -0.006775 9.502945
										CHANNELS 6 Xposition Yposition Zposition Zrotation Yrotation Xrotation
										JOINT LeftHandMiddle2
										{
											OFFSET 0.000000 0.000000 4.568726
											CHANNELS 6 Xposition Yposition Zposition Zrotation Yrotation Xrotation
											JOINT LeftHandMiddle3
											{
												OFFSET 0.000000 0.000000 3.654984
												CHANNELS 6 Xposition Yposition Zposition Zrotation Yrotation Xrotation
												JOINT LeftHandMiddle4
												{
													OFFSET 0.000000 0.000000 2.741241
													CHANNELS 6 Xposition Yposition Zposition Zrotation Yrotation Xrotation
													End Site
													{
														OFFSET 0.000000 0.000000 0.100006
													}
												}
											}
										}
									}
									JOINT LeftHandRing1
									{
										OFFSET -0.086761 2.267456 8.921707
										CHANNELS 6 Xposition Yposition Zposition Zrotation Yrotation Xrotation
										JOINT LeftHandRing2
										{
											OFFSET 0.000000 0.000000 4.061096
											CHANNELS 6 Xposition Yposition Zposition Zrotation Yrotation Xrotation
											JOINT LeftHandRing3
											{
												OFFSET 0.000000 0.000000 3.654984
												CHANNELS 6 Xposition Yposition Zposition Zrotation Yrotation Xrotation
												JOINT LeftHandRing4
												{
													OFFSET 0.000000 0.000000 2.741241
													CHANNELS 6 Xposition Yposition Zposition Zrotation Yrotation Xrotation
													End Site
													{
														OFFSET 0.000000 0.000000 0.100006
													}
												}
											}
										}
									}
									JOINT LeftHandPinky1
									{
										OFFSET 0.173492 4.467224 7.976990
										CHANNELS 6 Xposition Yposition Zposition Zrotation Yrotation Xrotation
										JOINT LeftHandPinky2
										{
											OFFSET 0.000000 0.000000 3.350403
											CHANNELS 6 Xposition Yposition Zposition Zrotation Yrotation Xrotation
											JOINT LeftHandPinky3
											{
												OFFSET 0.000000 0.000000 2.842758
												CHANNELS 6 Xposition Yposition Zposition Zrotation Yrotation Xrotation
												JOINT LeftHandPinky4
												{
													OFFSET 0.000000 0.000000 2.639709
													CHANNELS 6 Xposition Yposition Zposition Zrotation Yrotation Xrotation
													End Site
													{
														OFFSET 0.000000 0.000000 0.100006
													}
												}
											}
										}
									}
									JOINT LeftForeArmEnd
									{
										OFFSET 0.000000 0.000000 0.000000
										CHANNELS 6 Xposition Yposition Zposition Zrotation Yrotation Xrotation
										End Site
										{
											OFFSET 0.000000 0.000000 0.100006
										}
									}
								}
								JOINT LeftArmEnd
								{
									OFFSET 0.000000 0.000000 0.000000
									CHANNELS 6 Xposition Yposition Zposition Zrotation Yrotation Xrotation
									End Site
									{
										OFFSET 0.000000 0.000000 0.100006
									}
								}
							}
						}
					}
				}
			}
		}
	}
	JOINT RightUpLeg
	{
		OFFSET -11.289948 0.000000 0.000000
		CHANNELS 6 Xposition Yposition Zposition Zrotation Yrotation Xrotation
		JOINT RightLeg
		{
			OFFSET 0.000000 0.000000 -38.200329
			CHANNELS 6 Xposition Yposition Zposition Zrotation Yrotation Xrotation
			JOINT RightFoot
			{
				OFFSET 0.000000 0.000000 -39.900856
				CHANNELS 6 Xposition Yposition Zposition Zrotation Yrotation Xrotation
				JOINT RightToeBase
				{
					OFFSET 0.000000 -15.261658 0.000001
					CHANNELS 6 Xposition Yposition Zposition Zrotation Yrotation Xrotation
					JOINT RightToeBaseEnd
					{
						OFFSET 0.000000 -7.370728 0.000001
						CHANNELS 6 Xposition Yposition Zposition Zrotation Yrotation Xrotation
						End Site
						{
							OFFSET 0.000000 0.000000 0.100000
						}
					}
				}
				JOINT RightLegEnd
				{
					OFFSET 0.000000 0.000000 0.000000
					CHANNELS 6 Xposition Yposition Zposition Zrotation Yrotation Xrotation
					End Site
					{
						OFFSET 0.000000 0.000000 0.100000
					}
				}
			}
			JOINT RightUpLegEnd
			{
				OFFSET 0.000000 0.000000 0.000000
				CHANNELS 6 Xposition Yposition Zposition Zrotation Yrotation Xrotation
				End Site
				{
					OFFSET 0.000000 0.000000 0.099998
				}
			}
		}
	}
	JOINT LeftUpLeg
	{
		OFFSET 11.315674 0.000000 0.000000
		CHANNELS 6 Xposition Yposition Zposition Zrotation Yrotation Xrotation
		JOINT LeftLeg
		{
			OFFSET 0.000000 0.000000 -38.200329
			CHANNELS 6 Xposition Yposition Zposition Zrotation Yrotation Xrotation
			JOINT LeftFoot
			{
				OFFSET 0.000000 0.000000 -39.900856
				CHANNELS 6 Xposition Yposition Zposition Zrotation Yrotation Xrotation
				JOINT LeftToeBase
				{
					OFFSET 0.000000 -15.261658 0.000001
					CHANNELS 6 Xposition Yposition Zposition Zrotation Yrotation Xrotation
					JOINT LeftToeBaseEnd
					{
						OFFSET 0.000000 -7.539978 0.000001
						CHANNELS 6 Xposition Yposition Zposition Zrotation Yrotation Xrotation
						End Site
						{
							OFFSET 0.000000 0.000000 0.100000
						}
					}
				}
				JOINT LeftLegEnd
				{
					OFFSET 0.000000 0.000000 0.000000
					CHANNELS 6 Xposition Yposition Zposition Zrotation Yrotation Xrotation
					End Site
					{
						OFFSET 0.000000 0.000000 0.100000
					}
				}
			}
			JOINT LeftUpLegEnd
			{
				OFFSET 0.000000 0.000000 0.000000
				CHANNELS 6 Xposition Yposition Zposition Zrotation Yrotation Xrotation
				End Site
				{
					OFFSET 0.000000 0.000000 0.099998
				}
			}
		}
	}
}
MOTION
Frames: 2
Frame Time: 0.016667
-45.446045 -44.756958 87.573677 -5.711150 -6.030348 -6.273715 0.000010 2.080048 8.814232 -0.050066 3.638946 7.856366 0.000005 -0.000023 8.844136 -0.228309 0.499781 3.999159 -0.000009 -0.000025 11.682267 -2.346595 -0.269500 4.511840 0.000006 -0.000029 11.746716 -1.746371 -0.427391 3.020692 0.000004 -0.000002 17.658279 8.576990 16.991624 -6.272192 -0.000009 0.000000 5.101540 3.918176 1.903354 -9.793627 0.000013 0.000021 5.101573 0.505740 1.751911 -15.161121 -0.000002 -0.000002 11.655095 0.000000 0.000000 -0.000001 -2.625402 -0.000019 11.175202 5.704379 -85.659895 0.141827 -0.000027 -0.000005 10.434689 24.127240 -71.803675 -19.253058 0.000012 0.000013 29.628433 12.542798 1.685577 8.995412 0.000046 0.000038 22.857605 27.410065 30.019870 -9.772833 -2.867325 -2.944305 3.959557 33.202533 -11.605049 61.042131 0.000015 -0.000073 3.350385 -0.590050 0.577990 -1.182350 -0.000008 -0.000049 3.756518 -0.408456 0.402974 -0.820783 -0.000003 0.000001 3.147354 -0.000000 0.000000 -0.000000 -0.086761 -2.345264 10.030884 19.377300 38.515823 23.676641 0.000007 -0.000008 4.061102 -0.632932 -0.000001 -0.000209 0.000007 -0.000011 3.248877 -0.125374 0.000001 0.000139 -0.000014 0.000004 2.639716 0.000000 -0.000000 0.000001 0.104097 -0.006779 9.502960 12.450075 37.874666 18.223153 0.000009 -0.000000 4.568717 -0.578213 0.000037 -0.000290 -0.000011 -0.000022 3.654995 -0.074039 0.000002 -0.003946 -0.000002 0.000001 2.741260 -0.000000 -0.000001 0.000004 0.086716 2.267465 8.921745 1.513735 35.060034 9.676166 -0.000012 0.000016 4.061097 1.104430 -0.000250 -0.102262 -0.000005 -0.000030 3.654969 0.098601 0.000099 -0.078823 -0.000002 -0.000011 2.741247 0.000000 0.000001 0.000000 -0.173492 4.467192 7.976994 -9.334957 29.801273 3.195641 0.000011 0.000004 3.350426 2.084511 -0.000034 -0.000019 -0.000028 -0.000012 2.842759 0.084956 -0.000000 -0.021405 -0.000004 -0.000001 2.639718 0.000000 0.000001 -0.000001 -0.000015 0.000016 0.000002 -0.000001 0.000001 -0.000000 0.000009 0.000055 0.000020 0.000001 -0.000001 -0.000000 2.625401 -0.000028 11.175217 -11.714628 82.429967 0.009842 0.000011 -0.000004 10.813637 76.234774 61.021696 58.885834 0.000017 -0.000023 28.724796 -8.019459 1.069019 30.506005 0.644356 0.328880 25.716209 -10.190292 -13.389354 -15.549998 2.867302 -2.944275 3.959564 -32.577028 13.119602 58.269368 -0.000015 -0.000021 3.350430 3.715619 -3.276717 -7.188062 -0.000001 0.000024 3.756502 2.536236 -2.325403 -4.967964 0.000006 -0.000002 3.100008 0.000001 -0.000001 -0.000001 0.086761 -2.345293 10.030876 4.416802 -26.930989 15.374995 0.000004 -0.000027 4.061101 -0.533790 -0.000153 -0.000071 -0.000001 0.000017 3.248855 -0.031798 -0.000003 -0.000430 0.000004 -0.000008 2.639739 -0.000000 -0.000001 -0.000004 -0.104092 -0.006788 9.502960 -0.516218 -23.452856 12.276190 0.000004 0.000012 4.568759 -0.513839 -0.000038 0.000014 -0.000000 0.000009 3.655001 -0.004214 0.000001 -0.000018 -0.000005 0.000007 2.741246 -0.000000 -0.000000 -0.000003 -0.086750 2.267448 8.921707 -8.072371 -17.874632 8.560092 0.000001 0.000007 4.061112 1.027190 0.000053 0.000014 0.000012 0.000024 3.654996 0.021216 -0.000003 -0.000292 -0.000012 -0.000000 2.741270 0.000000 -0.000002 -0.000001 0.173489 4.467234 7.976988 -15.819744 -13.364699 2.756771 -0.000002 0.000001 3.350410 2.026428 -0.000006 0.000030 -0.000002 -0.000012 2.842743 0.023235 0.000000 0.000803 -0.000011 0.000009 2.639736 -0.000001 0.000000 -0.000001 0.000002 0.000021 0.000039 0.000006 0.000000 0.000002 -0.000015 -0.000026 0.000021 0.000004 0.000001 -0.000000 -11.289959 0.000010 -0.000015 18.392424 5.824599 -8.163346 -0.000005 0.000071 -38.200371 -0.620802 0.408574 33.348808 -0.000023 0.000007 -39.900845 5.501409 4.279826 10.519372 -0.000005 -15.261661 0.000009 0.292629 0.484078 -22.058272 -0.000005 -7.370656 0.000002 -0.000002 0.000001 0.000000 -0.000002 0.000059 0.000004 0.000000 0.000001 -0.000000 -0.000021 -0.000002 -0.000000 0.000001 -0.000000 0.000001 11.315654 -0.000058 -0.000025 2.866776 3.132044 -7.176180 0.000001 0.000112 -38.200275 -0.534532 0.440105 39.465437 0.000028 0.000006 -39.900848 15.752517 -1.719479 15.151487 0.000010 -15.261645 -0.000021 0.237184 -0.274807 -22.955030 -0.000014 -7.539918 0.000002 0.000000 -0.000000 -0.000003 -0.000000 -0.000003 -0.000000 0.000000 0.000001 -0.000002 -0.000002 0.000001 0.000002 -0.000000 -0.000001 -0.000001 
-45.630524 -44.641663 87.293762 -3.610324 -6.033206 -6.671089 0.000002 2.080071 8.814259 0.026595 3.442735 8.274366 0.000013 0.000012 8.844158 -0.160536 0.517612 4.059081 0.000003 0.000025 11.682263 -1.388721 0.131428 4.626762 0.000003 0.000015 11.746706 -1.363329 0.305508 3.197774 0.000000 0.000031 17.658249 7.038053 15.325444 -6.682772 -0.000043 -0.000008 5.101543 2.794167 1.807022 -9.582399 -0.000008 0.000023 5.101515 0.603438 1.397363 -15.305595 0.000002 -0.000004 11.655087 0.000000 0.000000 -0.000002 -2.625408 0.000029 11.175210 5.846353 -85.373014 0.139764 -0.000023 0.000010 10.434738 25.488480 -70.519845 -19.609606 0.000012 0.000000 29.628481 12.610765 1.605725 9.639077 0.000031 -0.000038 22.857605 26.613082 30.025730 -9.366326 -2.867310 -2.944244 3.959518 33.202605 -11.605006 61.041988 0.000006 -0.000031 3.350402 -0.590046 0.577989 -1.182167 -0.000002 0.000021 3.756523 -0.408461 0.402899 -0.820825 0.000003 -0.000001 3.147336 0.000000 0.000000 -0.000000 -0.086761 -2.345299 10.030884 19.348451 38.435541 22.877630 0.000001 0.000003 4.061112 -0.627429 0.000003 -0.000204 0.000015 0.000027 3.248878 -0.120186 0.000001 0.000128 -0.000003 0.000007 2.639713 -0.000001 0.000001 -0.000002 0.104103 -0.006775 9.502914 12.425671 37.799862 17.632787 0.000031 0.000023 4.568736 -0.574559 0.000031 -0.000282 0.000003 -0.000002 3.654988 -0.070815 0.000003 -0.003812 0.000002 0.000049 2.741251 0.000000 -0.000000 0.000001 0.086761 2.267463 8.921707 1.506747 35.025565 9.304003 0.000039 0.000029 4.061097 1.100359 -0.000251 -0.098318 -0.000004 0.000005 3.654982 0.094769 0.000082 -0.075682 0.000024 -0.000008 2.741232 0.000002 0.000000 0.000000 -0.173492 4.467249 7.976961 -9.331560 29.827709 2.897914 0.000031 0.000018 3.350425 2.081440 -0.027953 -0.001034 0.000010 0.000015 2.842765 0.081255 0.015105 -0.020545 -0.000002 0.000064 2.639692 -0.000000 0.000000 -0.000001 -0.000006 -0.000001 -0.000008 0.000000 0.000003 0.000004 0.000005 0.000002 0.000011 -0.000000 0.000000 -0.000000 2.625420 -0.000021 11.175194 -11.332174 82.269758 0.016925 0.000004 0.000011 10.813606 76.678258 62.269510 58.878594 0.000006 -0.000034 28.724743 -8.580156 1.093743 30.751950 0.644360 0.328835 25.716202 -11.468184 -13.782289 -15.130266 2.867302 -2.944275 3.959595 -32.521973 13.276049 57.994426 0.000005 -0.000011 3.350430 4.043809 -3.528128 -7.797469 -0.000011 0.000004 3.756515 2.756684 -2.509065 -5.386749 -0.000002 -0.000003 3.100018 0.000001 -0.000000 -0.000000 0.086754 -2.345263 10.030891 4.734780 -24.725655 14.990293 0.000003 0.000024 4.061095 -0.529444 0.000003 -0.000068 -0.000044 -0.000027 3.248880 -0.027719 0.000001 -0.000368 0.000004 0.000001 2.639722 0.000000 -0.000001 0.000000 -0.104076 -0.006775 9.502930 -0.225861 -21.839472 11.781814 0.000010 -0.000018 4.568730 -0.512013 0.000003 0.000016 0.000005 0.000014 3.655008 -0.003354 -0.000000 -0.000015 0.000015 -0.000015 2.741245 0.000002 -0.000001 0.000001 -0.086765 2.267427 8.921707 -7.943121 -17.296307 8.131562 0.000011 -0.000057 4.061124 1.022831 -0.039570 -0.000701 -0.000005 0.000001 3.654977 0.017818 0.020719 -0.000223 -0.000006 -0.000001 2.741235 0.000000 -0.000002 -0.000001 0.173481 4.467247 7.976997 -15.900501 -13.711554 2.796559 0.000032 0.000018 3.350399 2.022062 0.044358 0.001592 0.000007 0.000041 2.842749 0.019257 -0.023842 0.000576 0.000012 0.000000 2.639717 0.000000 0.000001 0.000000 0.000024 0.000022 -0.000001 -0.000002 0.000001 0.000002 -0.000002 -0.000027 0.000031 -0.000005 0.000000 -0.000000 -11.289968 0.000001 0.000000 16.511658 5.779357 -8.440288 0.000012 0.000014 -38.200287 -0.588380 0.408192 34.749858 -0.000012 0.000138 -39.900856 5.191052 4.410455 9.709181 0.000002 -15.261642 0.000012 0.326635 0.441132 -21.991566 0.000026 -7.370664 0.000002 -0.000001 0.000000 -0.000000 0.000018 0.000066 -0.000001 -0.000001 -0.000001 -0.000001 -0.000006 0.000067 -0.000011 -0.000001 -0.000000 -0.000001 11.315638 -0.000001 0.000002 2.929634 2.539437 -8.868994 -0.000027 0.000028 -38.200241 -0.432452 0.407236 43.279835 -0.000037 -0.000021 -39.900860 14.551221 -0.873102 15.132274 0.000013 -15.261633 -0.000007 0.121538 -0.324615 -22.799899 -0.000000 -7.539974 -0.000002 -0.000001 0.000001 -0.000002 0.000004 -0.000060 0.000002 -0.000000 0.000002 -0.000003 0.000001 0.000001 0.000002 0.000000 0.000000 -0.000000 
